<?xml version="1.0" standalone="no"?><!DOCTYPE svg PUBLIC "-//W3C//DTD SVG 1.1//EN" "http://www.w3.org/Graphics/SVG/1.1/DTD/svg11.dtd"><svg t="1594020387658" class="icon" viewBox="0 0 1024 1024" version="1.1" xmlns="http://www.w3.org/2000/svg" p-id="5748" xmlns:xlink="http://www.w3.org/1999/xlink" width="200" height="200"><defs><style type="text/css"></style></defs><path d="M404.014545 58.181818H131.258182A73.309091 73.309091 0 0 0 58.181818 131.258182v272.756363a73.309091 73.309091 0 0 0 73.076364 73.076364h272.756363a73.309091 73.309091 0 0 0 73.076364-73.076364V131.258182a73.309091 73.309091 0 0 0-73.076364-73.076364z m26.53091 345.832727a26.530909 26.530909 0 0 1-26.53091 26.53091H131.258182a26.530909 26.530909 0 0 1-26.530909-26.53091V131.258182A26.530909 26.530909 0 0 1 131.258182 104.727273h272.756363a26.530909 26.530909 0 0 1 26.53091 26.530909zM619.985455 477.090909h272.756363a73.309091 73.309091 0 0 0 73.076364-73.076364V131.258182a73.309091 73.309091 0 0 0-73.076364-73.076364H619.985455a73.309091 73.309091 0 0 0-73.076364 73.076364v272.756363a73.309091 73.309091 0 0 0 73.076364 73.076364zM593.454545 131.258182a26.530909 26.530909 0 0 1 26.53091-26.530909h272.756363a26.530909 26.530909 0 0 1 26.530909 26.530909v272.756363a26.530909 26.530909 0 0 1-26.530909 26.53091H619.985455a26.530909 26.530909 0 0 1-26.53091-26.53091zM404.014545 546.909091H131.258182a73.309091 73.309091 0 0 0-73.076364 73.076364v272.756363a73.309091 73.309091 0 0 0 73.076364 73.076364h272.756363a73.309091 73.309091 0 0 0 73.076364-73.076364V619.985455a73.309091 73.309091 0 0 0-73.076364-73.076364z m26.53091 345.832727a26.530909 26.530909 0 0 1-26.53091 26.530909H131.258182a26.530909 26.530909 0 0 1-26.530909-26.530909V619.985455a26.530909 26.530909 0 0 1 26.530909-26.53091h272.756363a26.530909 26.530909 0 0 1 26.53091 26.53091zM959.069091 926.021818l-39.098182-39.098182a209.454545 209.454545 0 1 0-33.047273 33.047273l39.098182 39.098182a23.272727 23.272727 0 0 0 33.047273 0 23.272727 23.272727 0 0 0 0-33.047273zM593.454545 756.363636a162.909091 162.909091 0 1 1 162.909091 162.909091 162.909091 162.909091 0 0 1-162.909091-162.909091z" p-id="5749" fill="#8a8a8a"></path></svg>