<?xml version="1.0" standalone="no"?><!DOCTYPE svg PUBLIC "-//W3C//DTD SVG 1.1//EN" "http://www.w3.org/Graphics/SVG/1.1/DTD/svg11.dtd"><svg t="1594021678300" class="icon" viewBox="0 0 1024 1024" version="1.1" xmlns="http://www.w3.org/2000/svg" p-id="61060" xmlns:xlink="http://www.w3.org/1999/xlink" width="200" height="200"><defs><style type="text/css"></style></defs><path d="M221.98272 934.03136a69.45792 69.45792 0 0 1 69.4272-69.4784 69.45792 69.45792 0 0 1 69.4272 69.4784A69.45792 69.45792 0 0 1 291.39968 1003.52a69.45792 69.45792 0 0 1-69.4272-69.48864z m551.91552 0a69.45792 69.45792 0 0 1 69.4272-69.4784 69.45792 69.45792 0 0 1 69.4272 69.4784A69.45792 69.45792 0 0 1 843.32544 1003.52a69.45792 69.45792 0 0 1-69.4272-69.48864z m187.4432-663.58272c17.3568 20.8384 24.29952 48.64 20.82816 76.43136l-55.53152 368.27136c-6.94272 45.16864-48.59904 79.91296-97.19808 79.91296H301.824c-48.59904 0-90.25536-41.69728-97.19808-93.7984L149.0944 298.22976 117.8624 128c-3.4816-17.36704-17.3568-27.79136-31.24224-27.79136H44.9536C24.12544 100.20864 10.24 82.83136 10.24 65.46432 10.24 48.08704 24.12544 30.72 44.9536 30.72h41.65632a101.28384 101.28384 0 0 1 100.6592 86.85568l24.29952 121.6h680.3456c27.78112 0 52.0704 10.42432 69.4272 31.27296z" p-id="61061" fill="#ff7300"></path></svg>