<?xml version="1.0" standalone="no"?><!DOCTYPE svg PUBLIC "-//W3C//DTD SVG 1.1//EN" "http://www.w3.org/Graphics/SVG/1.1/DTD/svg11.dtd"><svg t="1594021662296" class="icon" viewBox="0 0 1024 1024" version="1.1" xmlns="http://www.w3.org/2000/svg" p-id="60746" xmlns:xlink="http://www.w3.org/1999/xlink" width="200" height="200"><defs><style type="text/css"></style></defs><path d="M949.034667 256h-674.133334a18.816 18.816 0 0 1-18.133333-14.08l-66.56-179.626667a26.496 26.496 0 0 0-25.6-19.626666H62.933333a42.666667 42.666667 0 1 0 0 84.906666V128h45.269334a19.413333 19.413333 0 0 1 19.413333 15.786667L248.32 724.906667A53.12 53.12 0 0 0 300.885333 768h582.272a53.12 53.12 0 0 0 52.437334-42.24l65.877333-407.04A52.693333 52.693333 0 0 0 949.034667 256zM277.077333 340.053333H914.773333L859.093333 682.666667H317.824zM362.026667 810.666667a85.333333 85.333333 0 1 1-85.333334 85.333333 85.333333 85.333333 0 0 1 85.333334-85.333333z m469.333333 0a85.333333 85.333333 0 1 1-85.333333 85.333333 85.333333 85.333333 0 0 1 85.333333-85.333333z" fill="#8a8a8a" p-id="60747"></path></svg>