<?xml version="1.0" standalone="no"?><!DOCTYPE svg PUBLIC "-//W3C//DTD SVG 1.1//EN" "http://www.w3.org/Graphics/SVG/1.1/DTD/svg11.dtd"><svg t="1594715321266" class="icon" viewBox="0 0 1063 1024" version="1.1" xmlns="http://www.w3.org/2000/svg" p-id="3225" xmlns:xlink="http://www.w3.org/1999/xlink" width="176.474609375" height="170"><defs><style type="text/css"></style></defs><path d="M793.6 981.897846c-10.633846 0-22.961231-3.544615-33.595077-8.822154l-229.888-114.963692-231.660308 114.963692a70.498462 70.498462 0 0 1-74.24-5.316923c-21.267692-15.911385-33.595077-44.189538-28.317538-70.734769l47.773538-247.571692-182.153846-169.747693a77.824 77.824 0 0 1-19.456-74.279384c8.861538-26.505846 30.050462-45.961846 58.368-49.506462L353.28 309.956923l113.191385-229.888C478.838154 55.296 503.611077 39.384615 530.116923 39.384615c26.545231 0 53.051077 15.911385 63.684923 40.684308L706.953846 309.956923l252.849231 44.189539c26.545231 3.544615 49.545846 23.000615 56.635077 49.506461a72.073846 72.073846 0 0 1-17.723077 74.279385l-182.114462 171.52 45.961847 247.571692c5.316923 28.317538-7.089231 54.823385-28.278154 70.734769a63.015385 63.015385 0 0 1-40.684308 14.178462z" fill="#ff5777" p-id="3226"></path></svg>